<svg width="1177" height="489" viewBox="0 0 1177 489" fill="none" xmlns="http://www.w3.org/2000/svg">
<g clip-path="url(#clip0_3_2)">
<path d="M421.783 219.03C427.488 223.638 433.549 227.182 440.323 230.372C447.097 233.561 454.228 234.979 462.428 234.979C474.194 234.979 480.612 230.372 482.394 220.802C482.751 218.322 482.394 215.841 481.681 214.069C480.612 211.942 479.185 210.524 477.046 208.752C474.907 207.335 472.411 205.917 469.559 204.499C466.707 203.436 463.498 202.018 459.932 200.955C454.941 199.183 449.949 197.056 444.601 194.576C439.253 192.095 434.975 188.905 430.696 185.006C426.774 181.108 423.922 176.146 422.14 170.121C420.357 164.096 420 156.653 421.783 147.438C423.566 138.223 426.774 130.426 431.409 123.692C436.401 116.958 442.106 111.287 448.88 107.034C455.654 102.427 463.498 99.237 471.698 97.1105C479.898 94.984 488.455 93.9208 497.012 93.9208C508.778 93.9208 518.761 95.3384 526.605 97.8194C534.449 100.3 539.797 102.781 543.005 105.262C546.214 107.389 548.354 109.87 549.78 111.996C551.206 114.477 551.562 117.312 550.849 120.857C550.136 124.401 548.71 127.945 545.858 131.844C543.362 135.742 539.084 140.704 533.736 146.375C530.883 144.248 528.031 142.122 524.822 140.35C521.613 138.577 518.404 137.16 514.839 136.097C511.274 135.033 508.065 133.97 504.856 133.616C501.647 132.907 498.795 132.552 496.656 132.552C490.951 132.552 486.316 133.616 483.107 135.388C479.542 137.16 477.759 139.995 477.046 143.185C476.333 146.729 477.759 149.564 480.968 151.691C484.177 153.817 488.455 155.944 494.516 158.07C499.865 159.843 505.213 161.969 511.274 164.45C516.978 166.931 521.97 170.121 526.605 174.019C530.883 177.918 534.092 182.88 536.588 188.905C538.727 194.93 539.084 202.727 537.301 211.942C535.518 222.22 532.309 231.081 527.674 238.878C523.039 246.675 516.978 253.055 510.204 258.016C503.073 262.978 495.23 266.877 486.673 269.358C477.759 271.839 468.489 272.902 458.506 272.902C446.027 272.902 436.044 271.839 427.844 269.358C420 267.231 413.939 264.396 409.661 261.561C406.808 259.788 405.026 257.308 403.956 254.827C402.887 251.991 402.53 249.156 403.243 245.966C403.956 241.713 406.095 237.46 410.017 232.498C413.226 228.245 417.505 223.638 421.783 219.03Z" fill="#28499E"/>
<path d="M608.608 138.932H559.05C559.406 135.388 559.406 132.552 559.763 130.071C560.119 127.591 560.476 124.755 560.832 121.92C561.189 119.085 562.258 116.249 564.041 113.414C565.467 110.578 567.607 107.743 570.459 105.262C573.311 102.781 576.52 101.009 580.442 99.2371C584.364 97.8194 588.999 97.1106 594.703 97.1106H716.639C716.282 100.655 715.926 103.49 715.926 106.325C715.569 109.161 715.213 111.996 714.5 114.832C714.143 117.667 713.074 120.502 711.647 123.338C710.221 126.173 708.439 128.654 705.943 130.78C703.447 132.907 700.238 134.679 696.316 136.451C692.394 137.869 687.759 138.578 682.411 138.578H661.019L638.914 262.624C638.201 266.168 635.349 268.649 631.783 268.649H594.347C590.068 268.649 586.503 264.75 587.216 260.497L608.608 138.932Z" fill="#28499E"/>
<path d="M863.532 182.88C861.393 195.639 857.471 207.335 852.479 218.322C847.488 229.308 840.714 238.878 832.513 247.029C824.313 255.181 814.687 261.561 803.277 266.168C791.868 270.775 779.033 273.256 764.415 273.256C749.797 273.256 737.675 270.775 728.405 266.168C718.778 261.561 711.647 255.181 706.299 247.029C701.308 238.878 698.099 229.308 697.029 218.322C695.96 207.335 696.673 195.639 698.812 182.88C700.951 170.829 704.517 159.488 709.865 148.501C715.213 137.514 721.987 128.299 730.187 120.148C738.388 111.996 748.371 105.617 759.423 101.009C770.832 96.4017 783.668 93.9208 797.929 93.9208C811.834 93.9208 823.6 96.0473 833.226 100.655C842.853 105.262 849.984 111.287 854.975 119.439C859.967 127.236 863.176 136.805 864.602 147.438C866.384 158.425 866.028 170.121 863.532 182.88ZM810.765 183.234C811.834 176.855 812.547 170.475 812.547 164.45C812.547 158.425 811.834 153.109 810.408 148.856C808.982 144.248 806.486 140.704 803.277 138.223C800.069 135.742 796.147 134.324 790.799 134.324C785.451 134.324 780.459 135.742 776.181 138.223C771.902 140.704 767.98 144.603 764.771 148.856C761.563 153.463 758.71 158.779 756.571 164.45C754.432 170.475 752.649 176.5 751.58 183.234C750.51 189.968 749.797 196.348 749.797 202.373C749.797 208.398 750.51 213.714 751.936 218.322C753.362 222.929 755.858 226.473 759.067 229.308C762.276 232.144 766.554 233.562 771.902 233.562C777.25 233.562 781.885 232.144 786.164 229.308C790.442 226.473 794.007 222.929 797.216 218.322C800.425 213.714 802.921 208.398 805.06 202.373C807.199 196.348 809.695 189.968 810.765 183.234Z" fill="#28499E"/>
<path d="M1022.9 149.919C1021.83 156.653 1019.7 163.032 1017.2 168.349C1014.7 173.665 1011.85 178.627 1008.29 182.88C1005.08 187.133 1001.51 190.677 997.946 193.867C994.381 196.702 990.816 199.183 987.25 200.955L1013.63 265.459C1009.36 267.231 1004.72 269.003 999.729 270.421C994.738 271.839 989.033 272.548 982.615 272.548C974.058 272.548 967.284 271.484 962.293 269.003C957.301 266.522 953.379 262.269 950.527 255.535L936.266 213.714H933.057L923.787 265.105C923.43 267.586 920.934 269.358 918.439 269.358H877.437C874.228 269.358 871.376 266.522 872.089 262.978L900.968 99.2371C910.238 98.1738 919.508 97.465 929.135 97.1106C938.761 96.7561 946.605 96.4017 953.023 96.4017C979.763 96.4017 998.659 100.655 1010.07 109.515C1022.19 118.021 1026.47 131.489 1022.9 149.919ZM967.641 154.881C969.067 147.084 968.354 141.413 966.215 137.16C963.719 132.907 959.797 131.135 954.092 131.135C953.379 131.135 952.31 131.135 951.597 131.135C950.884 131.135 950.17 131.135 949.457 131.135C948.744 131.135 948.031 131.489 947.318 131.489L938.761 180.044H945.179C951.597 180.044 956.588 177.563 960.153 172.602C964.075 167.994 966.571 161.969 967.641 154.881Z" fill="#28499E"/>
<path d="M1129.51 230.017C1135.21 230.017 1139.85 230.726 1143.41 232.144C1146.98 233.562 1149.47 235.688 1151.26 237.815C1153.04 240.295 1153.75 242.776 1154.11 245.612C1154.47 248.447 1154.11 251.282 1153.75 254.472C1153.4 257.308 1152.68 259.788 1152.33 261.561C1152.33 261.915 1151.97 262.269 1151.97 262.978C1151.26 266.522 1148.05 268.649 1144.84 268.649H1038.59C1033.96 268.649 1030.39 264.396 1031.1 259.788L1058.91 103.136C1059.63 99.5915 1062.48 97.1106 1066.4 97.1106H1169.44C1173.72 97.1106 1177.28 100.655 1176.93 105.262C1176.57 107.389 1176.57 109.515 1175.86 112.705C1175.5 115.54 1174.43 118.376 1173.01 121.211C1171.58 124.046 1169.8 126.527 1167.3 129.008C1164.81 131.135 1161.6 133.261 1157.68 134.679C1153.75 136.097 1149.12 136.805 1143.77 136.805H1111.33C1107.76 136.805 1104.55 139.286 1103.84 142.831L1102.06 153.463C1101.34 158.071 1104.91 162.324 1109.54 162.324H1141.27C1145.91 162.324 1149.47 166.577 1148.76 171.184L1144.48 195.639C1143.77 199.183 1140.92 201.664 1137 201.664H1099.92C1096.35 201.664 1093.14 204.145 1092.43 207.689L1089.93 221.157C1089.22 225.764 1092.79 230.017 1097.42 230.017H1129.51Z" fill="#28499E"/>
<path d="M548.71 307.989C556.911 307.989 562.615 309.407 566.18 311.888C569.746 314.369 571.885 318.622 572.955 323.938L587.929 403.328H588.999L630.714 326.065C634.636 318.976 638.914 314.369 643.906 311.888C648.897 309.407 654.958 308.344 662.089 308.344C667.437 308.344 672.428 308.698 677.063 309.407C681.698 310.116 685.264 310.825 687.403 311.533L669.933 474.92C669.576 478.464 666.367 481.3 662.802 481.3H628.218C623.939 481.3 620.731 477.756 621.087 473.503L630.357 395.531H629.288L596.486 450.111H561.902L549.78 397.303H548.71L529.814 475.983C529.101 479.173 526.248 481.3 523.04 481.3H488.455C483.82 481.3 480.255 477.047 481.681 472.439L521.97 311.533C524.466 310.825 528.031 310.116 533.379 309.407C538.014 308.344 543.362 307.989 548.71 307.989Z" fill="#35C2F2"/>
<path d="M798.999 474.92L792.938 440.542H750.153L731.97 477.047C730.9 479.528 728.405 480.945 725.552 480.945H690.612C685.264 480.945 681.698 475.275 684.194 470.667L764.058 313.306C767.624 311.888 772.259 310.825 777.963 309.761C783.668 308.698 789.729 307.989 796.147 307.989C798.999 307.989 801.851 307.989 805.06 308.344C808.269 308.698 811.478 309.761 814.687 311.179C817.895 312.597 820.391 315.078 822.887 317.913C825.026 321.103 826.809 325.001 827.878 330.318L850.34 472.085C851.053 476.338 847.844 480.236 843.21 480.236H806.13C802.564 480.945 799.712 478.464 798.999 474.92ZM788.659 375.683C788.303 372.139 788.303 367.886 787.946 362.924C787.59 357.962 787.946 353.709 788.303 350.165H787.59C786.52 353.709 785.094 357.962 783.311 363.278C781.529 368.24 779.746 372.493 778.32 375.683L763.702 408.29H791.868L788.659 375.683Z" fill="#35C2F2"/>
<path d="M897.403 350.874H847.845C848.201 347.33 848.201 344.494 848.558 342.013C848.914 339.532 849.271 336.697 849.627 333.862C849.984 331.026 851.053 328.191 852.836 325.356C854.262 322.52 856.401 319.685 859.254 317.204C862.106 314.723 865.315 312.951 869.237 311.179C873.159 309.761 877.794 309.052 883.498 309.052H1005.08C1004.72 312.597 1004.36 315.432 1004.36 318.267C1004.01 321.103 1003.65 323.938 1002.94 326.773C1002.58 329.609 1001.51 332.444 1000.09 335.279C998.66 338.115 996.877 340.596 994.381 342.722C991.885 344.849 988.677 346.621 984.755 348.393C980.833 349.811 976.198 350.519 970.85 350.519H949.458L927.352 474.566C926.639 478.11 923.787 480.591 920.222 480.591H882.785C878.507 480.591 874.941 476.692 875.654 472.439L897.403 350.874Z" fill="#35C2F2"/>
<path d="M1092.43 441.959C1098.13 441.959 1102.77 442.668 1106.33 444.086C1109.9 445.503 1112.39 447.63 1114.18 449.756C1115.96 452.237 1116.67 454.718 1117.03 457.554C1117.39 460.389 1117.03 463.224 1116.67 466.414C1116.32 469.249 1115.6 471.73 1115.25 473.503C1114.89 475.275 1114.18 477.756 1113.46 480.591H1000.8C996.521 480.591 992.955 476.692 993.668 472.439L1021.48 315.078C1022.19 311.533 1025.04 309.052 1028.61 309.052H1139.85L1139.14 317.204C1138.78 319.331 1138.78 321.457 1138.07 324.647C1137.71 327.482 1136.64 330.318 1135.21 333.153C1133.79 335.988 1132 338.469 1129.51 340.95C1127.01 343.077 1123.8 345.203 1119.88 346.621C1115.96 348.038 1111.33 348.747 1105.98 348.747H1073.53C1069.97 348.747 1066.76 351.228 1066.05 354.772L1064.26 365.405C1063.55 370.012 1067.11 374.265 1071.75 374.265H1103.84C1108.12 374.265 1111.68 378.164 1110.97 382.417L1106.33 407.581C1105.62 411.125 1102.77 413.606 1099.2 413.606H1062.48C1058.91 413.606 1055.71 416.087 1054.99 419.631L1052.5 433.099C1051.78 437.706 1055.35 441.959 1059.98 441.959H1092.43Z" fill="#35C2F2"/>
<path d="M413.226 473.502C413.226 476.338 413.226 479.528 413.226 482.363C412.157 485.198 410.374 487.325 407.165 488.388C387.199 488.388 367.589 488.388 347.623 488.388C345.484 487.679 343.701 486.616 342.632 484.489C342.275 483.781 341.562 483.426 340.849 483.426C331.579 483.426 322.666 483.426 313.396 483.426C304.126 483.426 294.856 483.426 285.586 483.426C285.229 483.426 284.16 483.426 284.16 483.781C282.734 485.907 280.594 487.325 277.742 488.034C216.061 488.034 154.024 488.034 92.3431 488.034C91.9865 488.034 91.9865 487.679 91.63 487.679C86.2819 485.907 83.4296 480.591 85.2123 475.275C86.2819 472.439 89.4908 468.895 94.8388 468.895C110.526 468.895 125.858 468.895 141.545 468.895C142.258 468.895 142.615 468.895 143.328 468.895C143.328 455.782 143.328 442.668 143.328 429.555C142.615 429.555 141.902 429.555 141.189 429.555C113.379 429.555 85.5689 429.555 57.759 429.555C53.4806 429.555 49.2021 429.2 44.9237 428.137C23.1749 423.884 4.99155 405.454 0.713104 383.835C0.356567 381.708 3.0458e-05 379.227 -0.356506 376.746C-0.356506 374.265 -0.356506 372.139 -0.356506 369.658C3.0458e-05 367.177 0.356567 365.051 0.713104 362.57C1.42618 357.608 1.78271 352.292 2.49579 347.33C3.20886 342.013 3.5654 336.697 4.27847 331.735C4.99155 326.773 5.34808 321.457 6.06116 316.495C6.77423 311.179 7.13077 305.863 7.84384 300.901C8.55691 295.939 8.91345 290.623 9.62652 285.661C10.3396 280.345 10.6961 275.383 11.4092 270.066C12.1223 265.105 12.4788 259.788 12.8354 254.827C13.5484 249.51 13.905 244.194 14.618 238.878C14.9746 233.916 15.6876 228.954 16.0442 223.638C16.7573 218.321 17.1138 213.005 17.8269 207.689C18.5399 202.727 18.8965 197.411 19.253 192.449C19.9661 187.133 20.3226 181.816 21.0357 176.5C21.7488 171.538 22.1053 166.222 22.4618 161.26C23.1749 155.944 23.5315 150.628 24.2445 145.666C24.9576 140.704 25.3141 135.388 26.0272 130.426C26.7403 125.11 27.0968 119.793 27.8099 114.831C28.1664 111.996 28.1664 109.161 28.8795 106.325C30.3057 100.3 36.0102 94.6296 44.2106 94.984C62.0374 94.984 79.5077 94.984 97.3346 94.984C98.0476 94.984 98.4042 94.984 99.1173 94.984C99.1173 94.2752 99.1173 93.9207 99.1173 93.2119C99.1173 90.731 99.1173 87.8956 99.1173 85.4147C99.1173 68.0482 103.752 52.0994 113.735 37.5683C127.64 17.7209 146.537 5.67064 170.425 1.41762C173.277 1.06321 176.129 0.708788 178.981 0.35437C182.547 0.35437 185.756 0.35437 189.321 0.35437C189.678 0.35437 190.034 0.708788 190.391 0.708788C195.026 1.41762 199.661 1.77204 203.939 2.8353C236.384 10.2781 262.055 37.2139 267.759 69.8203C269.185 77.6175 269.185 85.0603 269.185 92.8575C269.185 93.5663 269.185 94.2752 269.185 94.984C269.898 94.984 270.611 94.984 270.968 94.984C276.673 94.984 282.377 94.984 288.082 94.984C301.63 94.984 314.822 94.984 328.37 94.984C335.145 94.984 341.206 100.3 342.632 107.034C342.988 109.87 343.345 112.705 343.702 115.54C344.415 120.857 344.771 126.173 345.484 131.135C346.197 136.096 346.554 141.413 347.267 146.375C347.98 151.691 348.336 157.007 349.05 161.969C349.763 166.931 350.119 172.247 350.832 177.209C351.545 182.525 351.902 187.842 352.615 192.803C352.971 197.765 353.685 203.082 354.041 208.043C354.754 213.36 355.111 218.676 355.824 223.992C356.537 228.954 356.893 234.27 357.25 239.232C357.963 244.548 358.319 249.865 359.033 255.181C359.746 260.143 360.102 265.459 360.459 270.421C361.172 275.737 361.528 281.053 362.241 286.015C362.954 290.977 363.311 296.293 364.024 301.255C364.737 306.572 365.094 311.888 365.807 316.85C366.52 321.812 366.876 327.128 367.589 332.09C368.303 337.406 368.659 342.722 369.372 347.684C370.085 352.646 370.442 357.962 371.155 362.924C371.868 368.595 372.224 374.265 371.511 380.291C369.016 395.176 361.885 407.226 350.119 416.796C339.423 425.302 327.301 429.2 314.109 429.2C286.299 429.2 258.133 429.2 230.323 429.2C229.61 429.2 228.897 429.2 228.54 429.2C228.54 442.314 228.54 455.427 228.54 468.541C229.253 468.541 229.966 468.541 230.323 468.541C243.515 468.541 256.707 468.541 269.898 468.541C272.751 468.541 275.603 468.541 278.455 468.541C282.734 468.541 285.943 471.376 287.012 475.275C287.369 476.338 287.725 476.692 288.795 476.692C306.622 476.692 324.092 476.692 341.919 476.692C342.275 476.692 342.988 476.692 343.345 476.692C343.345 476.338 343.345 476.338 343.345 476.338V475.983C343.702 464.996 347.98 456.136 356.537 449.402C361.528 445.149 367.233 443.023 373.651 441.959C375.79 441.605 376.859 442.668 377.216 444.795C377.216 445.503 377.216 446.212 377.216 447.276C377.216 448.693 377.929 449.402 378.999 449.402C380.425 449.402 380.781 448.339 380.781 447.276C380.781 446.567 380.781 445.503 380.781 444.795C380.781 442.668 381.851 441.605 383.99 441.959C398.608 444.44 408.235 452.592 412.87 466.414C412.157 469.604 412.513 471.73 413.226 473.502ZM319.814 118.376C319.1 118.376 318.387 118.376 318.031 118.376C229.61 118.376 141.189 118.376 52.7675 118.376C52.4109 118.376 52.0544 118.376 51.6979 118.376C51.3413 118.376 50.6283 119.084 50.6283 119.084C50.2717 121.211 50.2717 123.337 49.9152 125.464C49.5586 129.717 49.2021 133.616 48.489 137.869C48.1325 142.122 47.4194 146.375 47.0629 150.628C46.7064 154.881 46.3498 159.134 45.6367 163.387C45.2802 167.64 44.5671 172.247 44.2106 176.5C43.8541 180.753 43.4975 184.652 42.7844 188.905C42.4279 193.158 41.7148 197.411 41.3583 201.664C41.0018 205.917 40.6452 210.17 39.9322 214.423C39.5756 218.676 38.8625 223.283 38.506 227.536C38.1495 231.789 37.7929 235.688 37.0799 239.941C36.7233 244.194 36.0102 248.447 35.6537 252.7C35.2972 256.953 34.9406 261.206 34.2276 265.459C33.871 269.712 33.158 273.965 32.8014 278.218C32.4449 282.471 32.0883 286.724 31.3753 290.977C31.0187 295.23 30.3057 299.838 29.9491 304.091C29.5926 308.344 29.236 312.242 28.523 316.495C28.1664 320.748 27.4534 325.001 27.0968 329.254C26.7403 333.507 26.0272 337.76 25.6707 342.013C25.3141 344.14 25.3141 346.621 24.9576 348.747C130.849 348.747 236.74 348.747 342.632 348.747C335.858 271.839 328.014 195.284 319.814 118.376ZM118.37 94.6296C162.224 94.6296 205.722 94.6296 249.219 94.6296C249.219 87.1868 249.576 79.744 248.15 72.3012C239.593 28.7078 189.321 6.02506 150.815 28.7078C130.136 40.758 119.44 59.1878 118.37 82.9338C118.014 86.8324 118.37 90.731 118.37 94.6296Z" fill="#28499E"/>
<path d="M319.813 118.376C328.014 195.284 335.858 271.839 344.058 348.747C238.167 348.747 132.275 348.747 26.3837 348.747C26.7403 346.621 26.7403 344.14 27.0968 342.013C27.4533 337.76 28.1664 333.507 28.5229 329.254C28.8795 325.001 29.5926 320.748 29.9491 316.495C30.3056 312.242 30.6622 308.344 31.3752 304.091C31.7318 299.483 32.0883 294.876 32.8014 290.623C33.1579 286.37 33.5145 282.117 34.2275 277.864C34.5841 273.611 35.2971 269.358 35.6537 265.105C36.0102 260.852 36.3668 256.599 37.0798 252.346C37.4364 248.093 38.1494 243.84 38.506 239.587C38.8625 235.334 39.2191 231.435 39.9321 227.182C40.2887 222.929 41.0017 218.322 41.3583 214.069C41.7148 209.816 42.0713 205.562 42.7844 201.309C43.141 197.056 43.854 192.803 44.2106 188.55C44.5671 184.297 44.9236 180.399 45.6367 176.146C45.9932 171.893 46.7063 167.285 47.0629 163.032C47.4194 158.779 47.7759 154.526 48.489 150.273C48.8455 146.02 49.5586 141.767 49.9152 137.514C50.2717 133.261 50.6282 129.363 51.3413 125.11C51.6978 122.983 51.6978 120.857 52.0544 118.73C52.0544 118.376 52.7674 118.021 53.124 118.021C53.4805 118.021 53.8371 118.021 54.1936 118.021C142.615 118.021 231.036 118.021 319.457 118.021C318.387 118.376 319.1 118.376 319.813 118.376Z" fill="#35C2F2"/>
<path d="M110.997 227.978C111.359 226.187 111.359 224.395 111.722 222.962C112.446 220.096 113.533 216.871 115.706 214.721C121.502 208.63 131.644 210.064 135.991 217.23C137.44 219.738 138.164 222.962 138.527 225.829C139.251 231.561 139.976 237.294 141.424 242.669C145.409 257.717 154.465 269.182 168.229 276.707C184.892 285.664 201.192 283.873 216.044 272.407C228.359 263.091 235.604 250.193 237.777 234.786C238.14 231.203 238.502 227.62 238.864 224.395C239.226 220.812 240.313 217.23 243.211 214.721C247.195 211.139 252.267 210.422 257.338 211.855C262.409 213.288 265.307 216.871 266.031 221.887C266.393 224.754 266.393 227.62 266.393 230.845C266.031 238.369 264.582 245.535 262.771 252.701C258.787 265.958 251.904 277.065 242.486 287.097C231.982 298.204 218.941 305.729 204.09 309.312C195.759 311.461 187.428 311.103 178.734 309.312C166.056 306.445 154.102 301.429 143.598 293.547C132.007 284.947 123.675 273.482 118.242 260.225C114.982 251.984 112.808 243.743 111.722 235.144C111.722 234.428 111.359 233.711 111.359 232.995C110.997 230.845 110.997 229.412 110.997 227.978Z" fill="white"/>
<path d="M159.619 196.701C148.751 199.517 137.481 193.079 134.261 182.214L133.858 181.409C131.04 170.544 137.481 159.277 148.349 156.057C159.217 153.241 170.488 159.679 173.708 170.544L174.11 171.349C177.33 182.214 170.89 193.884 159.619 196.701Z" fill="white"/>
<path d="M226.218 196.701C215.35 199.517 204.079 193.079 200.859 182.214L200.456 181.409C197.639 170.544 204.079 159.277 214.947 156.057C225.815 153.241 237.086 159.679 240.306 170.544L240.709 171.349C243.929 182.214 237.488 193.884 226.218 196.701Z" fill="white"/>
</g>
<defs>
<clipPath id="clip0_3_2">
<rect width="1176.57" height="488.388" fill="white"/>
</clipPath>
</defs>
</svg>
